<?xml version="1.0" encoding="utf-8"?>
<!-- Generator: Adobe Illustrator 17.0.0, SVG Export Plug-In . SVG Version: 6.00 Build 0)  -->
<!DOCTYPE svg PUBLIC "-//W3C//DTD SVG 1.1//EN" "http://www.w3.org/Graphics/SVG/1.1/DTD/svg11.dtd">
<svg version="1.1" id="Livello_1" xmlns="http://www.w3.org/2000/svg" xmlns:xlink="http://www.w3.org/1999/xlink" x="0px" y="0px"
	 width="48px" height="55.061px" viewBox="317 229.484 48 55.061" enable-background="new 317 229.484 48 55.061"
	 xml:space="preserve">
<title>primary color</title>
<g id="Page-1">
	<g id="primary-color" transform="translate(-172, -227)">
		<g transform="translate(172.5249, 230)">
			<path id="Shape" fill="#155DFC" stroke="#1E2939" stroke-width="3" d="M350.294,262.843c-0.028-0.608-0.028-1.189-0.028-1.77
				c0-0.47-0.361-0.83-0.833-0.83c-3.469,0-6.105-0.996-8.298-3.125c-0.333-0.304-0.833-0.304-1.166,0
				c-2.192,2.129-4.829,3.125-8.298,3.125c-0.472,0-0.833,0.359-0.833,0.83c0,0.581,0,1.161-0.028,1.77
				c-0.111,5.807-0.278,13.771,9.463,17.117l0.278,0.055l0.277-0.055C350.544,276.614,350.405,268.678,350.294,262.843z"/>
			<path id="Path" fill="#155DFC" stroke="#1E2939" stroke-width="3" d="M341.881,230.134v-0.744c0-0.777-0.63-1.406-1.406-1.406
				s-1.406,0.63-1.406,1.406v0.744c-11.345,0.667-21.094,9.42-21.094,21.053c0,1.024,1.06,1.702,1.988,1.281
				c6.298-2.863,10.394,0.497,11.006,1.05c0.478,0.568,1.419,0.715,2.089,0.046c1.11-1.015,3.311-2.057,6.011-2.311v4.245h2.813
				v-4.245c2.623,0.247,4.82,1.24,6.003,2.304c0.17,0.157,0.328,0.307,0.624,0.393c0.528,0.164,1.118-0.014,1.47-0.427
				c0.619-0.56,4.714-3.916,11.009-1.055c0.928,0.422,1.988-0.257,1.988-1.281C362.975,239.56,353.234,230.802,341.881,230.134z"/>
		</g>
	</g>
</g>
</svg>
